<?xml version="1.0" standalone="no"?>
<!DOCTYPE svg PUBLIC "-//W3C//DTD SVG 20010904//EN"
 "http://www.w3.org/TR/2001/REC-SVG-20010904/DTD/svg10.dtd">
<svg version="1.0" xmlns="http://www.w3.org/2000/svg"
 width="1000.000000pt" height="1000.000000pt" viewBox="0 0 1000.000000 1000.000000"
 preserveAspectRatio="xMidYMid meet">
<metadata>
Created by potrace 1.14, written by Peter Selinger 2001-2017
</metadata>
<g transform="translate(0.000000,1000.000000) scale(0.100000,-0.100000)"
fill="#000000" stroke="none">
<path d="M3710 8370 c0 -5 -9 -59 -19 -122 -11 -62 -22 -129 -26 -148 -3 -19
-8 -46 -10 -60 -3 -14 -7 -38 -10 -55 -2 -16 -13 -82 -24 -145 -12 -63 -23
-133 -27 -155 -3 -22 -7 -42 -9 -45 -2 -3 -6 -29 -10 -59 -4 -30 -9 -63 -11
-75 -2 -12 -7 -37 -10 -56 -2 -19 -9 -55 -14 -80 -5 -25 -11 -58 -14 -75 -2
-16 -11 -73 -21 -125 -9 -52 -18 -106 -20 -120 -5 -34 -56 -330 -61 -355 -2
-11 -6 -33 -9 -50 -3 -16 -7 -43 -10 -60 -3 -16 -8 -43 -10 -60 -3 -16 -7 -41
-10 -55 -3 -14 -8 -42 -11 -64 -3 -21 -7 -46 -9 -55 -1 -9 -6 -36 -10 -61 -4
-25 -9 -54 -11 -65 -2 -11 -9 -47 -14 -80 -6 -33 -12 -72 -15 -87 -11 -64 -16
-87 -30 -173 -9 -49 -18 -103 -21 -120 -2 -16 -6 -41 -9 -55 -3 -14 -7 -38 -9
-55 -3 -16 -14 -84 -26 -150 -11 -66 -25 -147 -31 -180 -10 -60 -12 -75 -30
-175 -6 -30 -11 -64 -13 -75 -2 -11 -6 -33 -9 -50 -3 -16 -9 -48 -12 -70 -5
-37 -19 -119 -29 -172 -3 -11 -8 -43 -12 -70 -3 -26 -8 -57 -11 -68 -3 -17
-25 -143 -47 -275 -4 -19 -8 -46 -11 -60 -3 -14 -7 -41 -10 -60 -7 -42 -16
-97 -22 -125 -2 -11 -6 -36 -9 -55 -10 -70 -45 -257 -61 -330 -91 -425 -365
-668 -735 -654 -106 4 -166 17 -246 55 -119 57 -201 162 -238 304 -26 98 -24
383 2 468 5 16 -37 17 -789 17 l-795 0 -8 -57 c-9 -65 -9 -64 -19 -153 -14
-121 -20 -400 -11 -515 12 -150 45 -327 82 -448 106 -338 300 -602 587 -798
188 -128 436 -233 652 -275 11 -2 31 -6 45 -9 27 -6 124 -22 180 -30 165 -24
580 -24 750 0 39 6 140 22 185 30 103 19 267 64 375 102 107 39 298 125 365
166 231 139 341 222 501 382 249 248 432 536 563 887 28 75 51 142 51 149 0 7
3 10 6 7 3 -3 0 -35 -6 -69 -7 -35 -14 -77 -17 -94 -2 -16 -15 -91 -28 -165
-13 -74 -27 -151 -30 -170 -3 -19 -12 -71 -20 -115 -7 -44 -16 -96 -19 -115
-3 -19 -10 -57 -15 -85 -6 -27 -12 -63 -15 -80 -4 -29 -22 -136 -30 -185 -3
-14 -9 -52 -15 -85 -15 -85 -21 -122 -32 -185 -6 -30 -12 -66 -14 -80 -2 -14
-6 -41 -10 -60 -3 -19 -10 -62 -16 -95 -5 -33 -12 -68 -15 -77 -5 -17 37 -18
790 -18 437 0 797 3 800 8 2 4 7 28 11 52 3 25 8 52 10 60 2 8 6 31 9 50 3 19
8 46 11 60 6 34 73 416 80 460 6 39 23 134 29 165 2 11 11 63 20 115 9 52 19
109 21 125 3 17 12 66 20 110 8 44 17 96 20 115 6 39 16 94 21 125 7 39 23
131 29 165 4 19 13 72 21 118 8 45 17 99 20 118 3 20 8 46 10 58 2 11 7 37 10
56 3 19 19 109 35 200 17 91 32 181 35 200 3 18 6 35 7 36 1 1 290 5 642 7
352 3 659 7 681 10 23 2 70 8 105 12 35 4 73 9 84 11 11 2 40 7 65 10 234 31
539 125 776 239 136 66 357 198 428 256 6 5 49 39 96 76 102 80 263 240 346
343 227 281 384 593 472 935 31 122 47 197 57 270 3 23 7 51 10 65 18 94 25
401 13 550 -14 158 -70 392 -119 494 -10 22 -19 43 -19 46 0 4 -23 49 -51 101
-185 341 -509 603 -904 730 -88 29 -150 47 -190 55 -11 3 -40 9 -65 14 -114
25 -172 34 -275 45 -33 4 -76 9 -95 12 -54 9 -4490 11 -4490 3z m4035 -1304
c170 -40 226 -63 312 -123 94 -66 170 -171 201 -280 46 -159 32 -421 -34 -621
-114 -343 -335 -556 -656 -632 -46 -10 -96 -22 -113 -26 -16 -4 -268 -9 -558
-11 l-529 -4 7 47 c3 26 8 50 10 53 1 3 6 29 9 56 3 28 12 86 20 130 8 44 17
94 19 110 7 44 46 277 51 301 2 12 7 39 10 60 4 22 11 64 16 94 5 30 12 73 15
95 4 22 8 47 10 55 2 8 7 33 10 55 3 23 7 50 9 60 2 11 7 40 11 65 4 25 9 52
10 60 1 8 6 35 10 60 4 25 9 54 11 65 2 11 13 76 25 145 12 69 22 132 24 140
2 8 4 25 4 38 l1 23 533 -4 c292 -2 546 -7 562 -11z"/>
</g>
</svg>
